<svg xmlns="http://www.w3.org/2000/svg" viewBox="0 0 32.51 22.29"><defs><style>.cls-1{fill:#3fb128;}</style></defs><g id="Capa_2" data-name="Capa 2"><g id="Capa_1-2" data-name="Capa 1"><path class="cls-1" d="M26.11,5.67a2.76,2.76,0,0,0-.46-1.35,4,4,0,0,0-2-1.18,4.61,4.61,0,0,1-1.2-.52,4.53,4.53,0,0,1-.85-1A3.92,3.92,0,0,0,19.84.1a3.79,3.79,0,0,0-2.27.22,4.64,4.64,0,0,1-1.32.29A4.65,4.65,0,0,1,14.94.32,3.79,3.79,0,0,0,12.67.1a3.87,3.87,0,0,0-1.76,1.56,4.53,4.53,0,0,1-.85,1,4.61,4.61,0,0,1-1.2.52,3.91,3.91,0,0,0-2,1.18A2.76,2.76,0,0,0,6.4,5.67H0l2.06,5.48L0,16.62H6.4A2.73,2.73,0,0,0,6.86,18a3.85,3.85,0,0,0,2,1.18,5,5,0,0,1,1.2.52,4.37,4.37,0,0,1,.85,1,4,4,0,0,0,1.76,1.55,2.24,2.24,0,0,0,.68.1A5.55,5.55,0,0,0,14.94,22a4.6,4.6,0,0,1,1.32-.28,4.61,4.61,0,0,1,1.31.28,3.79,3.79,0,0,0,2.27.22,3.9,3.9,0,0,0,1.76-1.55,4.37,4.37,0,0,1,.85-1,5,5,0,0,1,1.2-.52,3.85,3.85,0,0,0,2-1.18,2.73,2.73,0,0,0,.46-1.35h6.4l-2.06-5.47,2.06-5.48ZM1.59,15.52l1.65-4.37L1.6,6.77H6.36a4.2,4.2,0,0,1-.13,1.12A4.72,4.72,0,0,1,5.59,9a3.86,3.86,0,0,0-.94,2.17,3.89,3.89,0,0,0,.94,2.17,4.34,4.34,0,0,1,.64,1.09,4.13,4.13,0,0,1,.13,1.11ZM26,12.68a5.14,5.14,0,0,0-.79,1.38A5.67,5.67,0,0,0,25,15.7a3,3,0,0,1-.29,1.62,2.9,2.9,0,0,1-1.46.78,5.6,5.6,0,0,0-1.49.68A5.43,5.43,0,0,0,20.71,20a3.07,3.07,0,0,1-1.21,1.16,2.92,2.92,0,0,1-1.6-.23,5.76,5.76,0,0,0-1.64-.33,5.76,5.76,0,0,0-1.65.33,2.92,2.92,0,0,1-1.6.23A3,3,0,0,1,11.8,20a5.43,5.43,0,0,0-1.09-1.2,5.6,5.6,0,0,0-1.49-.68,2.9,2.9,0,0,1-1.46-.78,3,3,0,0,1-.29-1.62,5.67,5.67,0,0,0-.19-1.64,5.14,5.14,0,0,0-.79-1.38,3,3,0,0,1-.74-1.53,3,3,0,0,1,.74-1.54,5.14,5.14,0,0,0,.79-1.38,5.63,5.63,0,0,0,.19-1.64A3,3,0,0,1,7.76,5a3,3,0,0,1,1.46-.78,5.6,5.6,0,0,0,1.49-.68A5.38,5.38,0,0,0,11.8,2.32,3,3,0,0,1,13,1.15a1.22,1.22,0,0,1,.34,0,4.61,4.61,0,0,1,1.26.27,5.76,5.76,0,0,0,1.65.33,5.76,5.76,0,0,0,1.64-.33,3,3,0,0,1,1.6-.23,3,3,0,0,1,1.21,1.17A5.38,5.38,0,0,0,21.8,3.51a5.6,5.6,0,0,0,1.49.68A3,3,0,0,1,24.75,5,3,3,0,0,1,25,6.59a5.67,5.67,0,0,0,.19,1.64A5.14,5.14,0,0,0,26,9.61a3,3,0,0,1,.74,1.54A3,3,0,0,1,26,12.68Zm4.89,2.84H26.15a4.25,4.25,0,0,1,.13-1.12,4.48,4.48,0,0,1,.64-1.08,3.92,3.92,0,0,0,.94-2.17A3.86,3.86,0,0,0,26.92,9a4.72,4.72,0,0,1-.64-1.09,4.2,4.2,0,0,1-.13-1.12h4.76l-1.64,4.38Z"/><path class="cls-1" d="M16.25,3.52a7.63,7.63,0,1,0,7.63,7.63A7.63,7.63,0,0,0,16.25,3.52Zm0,14.15a6.53,6.53,0,1,1,6.53-6.52A6.53,6.53,0,0,1,16.25,17.67Z"/><path class="cls-1" d="M14.09,10.67a1.85,1.85,0,1,0-1.85-1.85A1.85,1.85,0,0,0,14.09,10.67Zm0-2.59a.75.75,0,0,1,.75.74.76.76,0,0,1-.75.75.75.75,0,0,1-.74-.75A.74.74,0,0,1,14.09,8.08Z"/><path class="cls-1" d="M18.63,11.62a1.85,1.85,0,1,0,1.85,1.85A1.85,1.85,0,0,0,18.63,11.62Zm0,2.59a.74.74,0,0,1,0-1.48.74.74,0,1,1,0,1.48Z"/><rect class="cls-1" x="11.13" y="10.7" width="9.93" height="1.1" transform="translate(-3.24 14.68) rotate(-45)"/></g></g></svg>