<svg xmlns="http://www.w3.org/2000/svg" viewBox="0 0 33.35 13.02"><defs><style>.cls-1{fill:#3fb128;}</style></defs><g id="Capa_2" data-name="Capa 2"><g id="Capa_1-2" data-name="Capa 1"><path class="cls-1" d="M33.35,13H0v-.84H2.91V8.12H7.36V4.06h4.45V0h9.73V4.06H26V8.12h4.45v4.06h2.9ZM.25,12.77H33.1v-.34H30.2V8.37H25.75V4.31H21.29V.25H12.06V4.31H7.61V8.37H3.16v4.06H.25Zm29.61-.34H21.29V8.71h8.57Zm-8.32-.25h8.07V9H21.54Zm-.58.25H12.39V8.71H21Zm-8.32-.25h8.07V9H12.64Zm-.58.25H3.49V8.71h8.57Zm-8.32-.25h8.07V9H3.74ZM25.41,8.37H16.84V4.65h8.57Zm-8.32-.25h8.07V4.9H17.09Zm-.58.25H7.94V4.65h8.57ZM8.19,8.12h8.07V4.9H8.19ZM21,4.31H12.39V.58H21Zm-8.32-.25h8.07V.83H12.64Z"/></g></g></svg>