<svg xmlns="http://www.w3.org/2000/svg" viewBox="0 0 31.66 22.94"><defs><style>.cls-1{fill:#3fb128;}</style></defs><g id="Capa_2" data-name="Capa 2"><g id="Capa_1-2" data-name="Capa 1"><path class="cls-1" d="M4.67,0a2,2,0,0,0-2,1.88v9a2,2,0,0,0,2.09,2h.41v2a1.25,1.25,0,0,0,1.27,1.21h.1L7,17.59a.49.49,0,0,0,.59.33.5.5,0,0,0,.33-.33l.43-1.48h.1A1.24,1.24,0,0,0,9.68,14.9v-2h.41a2,2,0,0,0,2.09-2v-.46h6.45l-1.14,8.75h-16A1.47,1.47,0,0,0,0,20.67v.81a1.47,1.47,0,0,0,1.46,1.46H30.2a1.47,1.47,0,0,0,1.46-1.46v-.81a1.47,1.47,0,0,0-1.46-1.46H28.33l-1.15-8.75A2,2,0,0,0,29,8.57V1.88A1.94,1.94,0,0,0,27,0Zm0,1H27a1,1,0,0,1,1,.93V8.57a1,1,0,0,1-1,.93H11.7a.47.47,0,0,0-.48.47h0v.94a1.07,1.07,0,0,1-1.13,1H4.76a1.08,1.08,0,0,1-1.14-1v-9A1,1,0,0,1,4.67,1ZM23.26,2.37A2.76,2.76,0,0,0,20.43,5a2.85,2.85,0,0,0,5.68,0A2.77,2.77,0,0,0,23.26,2.37Zm0,.93A1.79,1.79,0,0,1,25.12,5a1.86,1.86,0,0,1-3.71,0A1.78,1.78,0,0,1,23.26,3.3Zm-3.67,7.16h6.64l1.14,8.75H18.43ZM6.13,12.9h2.6v2a.28.28,0,0,1-.31.26h-2a.28.28,0,0,1-.31-.26ZM1.46,20.16h16.2a.45.45,0,0,0,.45,0H30.2a.5.5,0,0,1,.51.51v.81a.51.51,0,0,1-.51.52H1.46A.51.51,0,0,1,1,21.48v-.81A.5.5,0,0,1,1.46,20.16Z"/></g></g></svg>