<svg xmlns="http://www.w3.org/2000/svg" viewBox="0 0 28.02 27.34"><defs><style>.cls-1{fill:#3fb128;}</style></defs><g id="Capa_2" data-name="Capa 2"><g id="Capa_1-2" data-name="Capa 1"><path class="cls-1" d="M24,27.34h-8.7l-.09-6.4a.25.25,0,0,0-.25-.25H10.33a.25.25,0,0,0-.25.25v6.4H1.22V13.85a1.15,1.15,0,0,1-.94-.37A1.18,1.18,0,0,1,0,12.64a1.14,1.14,0,0,1,.43-.8L11.66,3.07a1.34,1.34,0,0,1,1.58,0L25,11.8a1.17,1.17,0,0,1,.18,1.63,1.23,1.23,0,0,1-1.17.4Zm-7.78-.93H23.1V12.15l1,.73a.26.26,0,0,0,.35-.05.22.22,0,0,0-.06-.31L12.69,3.81a.41.41,0,0,0-.48,0L1,12.57a.25.25,0,0,0-.08.15.21.21,0,0,0,0,.14.23.23,0,0,0,.3,0l.87-.66V26.41h7V20.94a1.18,1.18,0,0,1,1.18-1.18H15a1.18,1.18,0,0,1,1.18,1.16Z"/><path class="cls-1" d="M22.58,8a.48.48,0,0,1-.47-.4,2.14,2.14,0,0,0-.79-1.38,2.33,2.33,0,0,0-1.74-.53.47.47,0,1,1-.16-.92,3.3,3.3,0,0,1,2.49.72,3.14,3.14,0,0,1,1.13,2,.47.47,0,0,1-.4.53Z"/><path class="cls-1" d="M25.22,8.1a.46.46,0,0,1-.46-.4,5.6,5.6,0,0,0-2-3.4,5.37,5.37,0,0,0-4-1.09.47.47,0,0,1-.54-.38.48.48,0,0,1,.39-.54,6.31,6.31,0,0,1,4.71,1.28,6.41,6.41,0,0,1,2.32,4,.46.46,0,0,1-.39.53Z"/><path class="cls-1" d="M27.55,8.32a.46.46,0,0,1-.46-.42,7.88,7.88,0,0,0-2.91-5.28A8.08,8.08,0,0,0,18,1a.48.48,0,0,1-.55-.38A.47.47,0,0,1,17.8.12a8.92,8.92,0,0,1,7,1.77A8.73,8.73,0,0,1,28,7.8a.47.47,0,0,1-.41.52Z"/></g></g></svg>