<svg xmlns="http://www.w3.org/2000/svg" viewBox="0 0 19.47 32.88"><defs><style>.cls-1{fill:#3fb128;}</style></defs><g id="Capa_2" data-name="Capa 2"><g id="Capa_1-2" data-name="Capa 1"><path class="cls-1" d="M17.17,0H2.26A2.27,2.27,0,0,0,0,2.26V29A2.27,2.27,0,0,0,2.26,31.3h.19v.95a.66.66,0,0,0,1.31,0V31.3h12v.95a.66.66,0,0,0,1.31,0V31.3h.11A2.27,2.27,0,0,0,19.47,29V2.26A2.33,2.33,0,0,0,17.17,0ZM2.26,1.31H17.17a.91.91,0,0,1,.91.92v9.35H1.35V2.26A.94.94,0,0,1,2.26,1.31ZM17.17,30H2.26A.9.9,0,0,1,1.35,29V12.93H18.12V29A.94.94,0,0,1,17.17,30Z"/><path class="cls-1" d="M3.1,15.34v3.58a.66.66,0,0,0,1.32,0V15.34A.66.66,0,0,0,3.1,15.34Z"/><path class="cls-1" d="M4.42,9.5V5.92a.66.66,0,0,0-1.32,0V9.5A.66.66,0,0,0,4.42,9.5Z"/></g></g></svg>