<svg xmlns="http://www.w3.org/2000/svg" viewBox="0 0 29.22 17.17"><defs><style>.cls-1{fill:#3fb128;}</style></defs><g id="Capa_2" data-name="Capa 2"><g id="Capa_1-2" data-name="Capa 1"><path class="cls-1" d="M0,0V17.17H29.22V0ZM28.49.73v11H.73V.73ZM.73,16.44v-4H28.49v4Zm6.89-5.61A4.81,4.81,0,1,0,2.81,6h0A4.82,4.82,0,0,0,7.62,10.83Zm0-8.89A4.08,4.08,0,1,1,3.54,6,4.08,4.08,0,0,1,7.62,1.94Zm14,8.89A4.81,4.81,0,1,0,16.78,6h0A4.83,4.83,0,0,0,21.59,10.83Zm0-8.89A4.08,4.08,0,1,1,17.51,6,4.08,4.08,0,0,1,21.59,1.94ZM5.64,7.58l-.41.36.51.49L6.18,8a2.86,2.86,0,0,0,1.13.45v.67H8V8.46A2.68,2.68,0,0,0,9.11,8l.39.4L10,7.89,9.6,7.57a2.28,2.28,0,0,0,.45-1h.54V5.84h-.54A3,3,0,0,0,9.6,4.65l.4-.46-.5-.54-.37.4A2.59,2.59,0,0,0,8,3.58V3.29H7.31v.29A2.87,2.87,0,0,0,6.18,4l-.42-.41-.53.52.41.5a3,3,0,0,0-.46,1.19H4.75v.73h.43A2.38,2.38,0,0,0,5.64,7.58Zm.52-2.41.37.31L7,4.94l-.33-.36a1.05,1.05,0,0,1,.6-.26v.79H8V4.32s.36.13.54.25l-.37.36.52.52.36-.27a1.33,1.33,0,0,1,.22.66H8.77v.73h.54c0,.37-.13.31-.24.48l-.37-.4-.51.49.38.35C8.4,7.6,8,7.67,8,7.71v-.4H7.31v.4a1,1,0,0,1-.6-.24l.34-.36-.52-.52-.37.46c-.11-.18-.2-.12-.24-.48h.65V5.84H5.92a1.29,1.29,0,0,1,.24-.66ZM19.61,7.58l-.4.36.51.49L20.11,8a2.65,2.65,0,0,0,1.08.45v.67h.73V8.46A2.79,2.79,0,0,0,23,8l.42.4L24,7.89l-.41-.32a2.29,2.29,0,0,0,.46-1h.44V5.84H24a3,3,0,0,0-.46-1.19L24,4.19l-.52-.54-.43.4a2.67,2.67,0,0,0-1.11-.47V3.29h-.73v.29A2.66,2.66,0,0,0,20.11,4l-.39-.41-.51.52.42.5a3.06,3.06,0,0,0-.47,1.19h-.53v.73h.53a2.37,2.37,0,0,0,.45,1Zm.53-2.4.37.31L21,5l-.36-.37c.16-.12.53-.2.53-.26v.79h.73V4.32a1,1,0,0,1,.59.25l-.35.36.53.52.36-.27a1.36,1.36,0,0,1,.24.66h-.64v.73h.64c-.05.37-.13.31-.25.48l-.36-.4-.52.49.34.35a1,1,0,0,1-.59.22v-.4h-.72v.4s-.37-.12-.56-.24L21,7.11l-.51-.52-.37.46c-.11-.18-.19-.12-.23-.48h.56V5.84H19.9a1.29,1.29,0,0,1,.24-.66ZM7.62,12.42a1.83,1.83,0,1,0,1.82,1.83h0A1.83,1.83,0,0,0,7.62,12.42ZM8,15.25v-1H7.31v1a1.16,1.16,0,0,1-.75-1,1.09,1.09,0,1,1,2.17,0A1.14,1.14,0,0,1,8,15.25ZM20.31,13a1.83,1.83,0,1,0,2.58,0l0,0a1.83,1.83,0,0,0-2.56,0ZM20.82,15a1.1,1.1,0,0,1,1.52-1.58,1.11,1.11,0,0,1,.23,1.27L21.84,14l-.52.51.73.73A1.1,1.1,0,0,1,20.82,15Z"/></g></g></svg>