<svg xmlns="http://www.w3.org/2000/svg" viewBox="0 0 31.22 21.44"><defs><style>.cls-1{fill:#3fb128;}</style></defs><g id="Capa_2" data-name="Capa 2"><g id="Capa_1-2" data-name="Capa 1"><path class="cls-1" d="M25.35,9.7a5.77,5.77,0,0,0-2.58.61L20.42,6.26l.84-2.72L23,3.65h.09a1.55,1.55,0,0,0,1.56-1.56V1.56A1.59,1.59,0,0,0,24.2.42,1.59,1.59,0,0,0,23,0L18.66.27a1.56,1.56,0,0,0,0,3.11l1.8.11-.73,2.35H10.28l.91-3.73a.39.39,0,0,0-.38-.48H6.58a.28.28,0,0,0-.13,0,2.48,2.48,0,0,0,.11,5A.38.38,0,0,0,7,6.23a.39.39,0,0,0-.39-.39,1.71,1.71,0,1,1,0-3.41l.1,0h3.65l-1.9,7.88a5.79,5.79,0,1,0,.7.39l.55-2.26,5.67,7.28a1.75,1.75,0,0,0-.43,1.16A1.82,1.82,0,0,0,16,18.52L15.7,19.7H15a.39.39,0,0,0-.39.39.38.38,0,0,0,.39.39h2a.38.38,0,0,0,.39-.39.39.39,0,0,0-.39-.39H16.5l.25-1A1.8,1.8,0,0,0,18.5,17l1.11-.16a5.87,5.87,0,1,0,5.74-7.1ZM18.71,2.6A.78.78,0,0,1,18,1.83a.79.79,0,0,1,.74-.78L23.09.78h0a.78.78,0,0,1,.54.21.8.8,0,0,1,.24.57v.53a.8.8,0,0,1-.24.57.75.75,0,0,1-.58.21ZM11,15.57a5.09,5.09,0,1,1-5.09-5.09,5,5,0,0,1,2.35.58l-.24,1L6.57,14a1.63,1.63,0,0,0-.7-.15,1.76,1.76,0,1,0,1.76,1.76,1.74,1.74,0,0,0-.43-1.15l1.45-2a.37.37,0,0,0,.07-.14l.19-.81A5.09,5.09,0,0,1,11,15.57Zm-4.11,0a1,1,0,1,1-1-1A1,1,0,0,1,6.85,15.57ZM9.9,7.45l.2-.83h9.38l-2.64,8.45-.14,0a1.87,1.87,0,0,0-.75.17Zm6.8,10.44a1,1,0,1,1,1-1A1,1,0,0,1,16.7,17.89ZM19.51,16l-1.13.17a1.92,1.92,0,0,0-.79-.9l2.51-8,2,3.42a5.89,5.89,0,0,0-2.61,4.88C19.48,15.72,19.5,15.87,19.51,16Zm.75-.45a5.1,5.1,0,0,1,2.23-4.2l1.68,2.9a1.77,1.77,0,0,0-.57,1.16l-3.32.48C20.27,15.8,20.26,15.69,20.26,15.57Zm5.09,5.09a5.09,5.09,0,0,1-5-4l3.32-.48a1.76,1.76,0,1,0,1.64-2.4,1.69,1.69,0,0,0-.5.08L23.16,11a5.21,5.21,0,0,1,2.19-.5,5.09,5.09,0,0,1,0,10.18Zm-1-5.09a1,1,0,1,1,1,1A1,1,0,0,1,24.37,15.57Z"/></g></g></svg>