<svg xmlns="http://www.w3.org/2000/svg" viewBox="0 0 29.19 24.11"><defs><style>.cls-1{fill:#3fb128;}</style></defs><g id="Capa_2" data-name="Capa 2"><g id="Capa_1-2" data-name="Capa 1"><path class="cls-1" d="M10.71,21a.55.55,0,0,1-.15-.37.7.7,0,0,1,.15-.4.54.54,0,0,1,.4-.15h7a.81.81,0,0,1,.4.15.53.53,0,0,1,.14.4.77.77,0,0,1-.14.4.56.56,0,0,1-.4.15h-7a.57.57,0,0,1-.4-.18ZM24.48,4.16a1.31,1.31,0,0,0-1.32-1.31H6A1.3,1.3,0,0,0,4.72,4.16V13.7A1.3,1.3,0,0,0,6,15H23.16a1.31,1.31,0,0,0,1.32-1.31ZM6,4.09H23.2v9.64H6Zm20.53,20a2.71,2.71,0,0,0,2.34-1.32,2.56,2.56,0,0,0-.08-2.74L27.07,16.8V3.47A3.43,3.43,0,0,0,23.64,0H5.48a2.42,2.42,0,0,0-.69.11.27.27,0,0,0-.15,0A3.18,3.18,0,0,0,3.48.69,3.21,3.21,0,0,0,2.09,3.47V16.8L.41,20.09a2.6,2.6,0,0,0,2.19,4H26.49ZM1.54,20.78l1.53-3.06.3-.59V3.25A2,2,0,0,1,4.61,1.5a1.71,1.71,0,0,1,.87-.26H23.67a2.2,2.2,0,0,1,2.16,2.19V16.36H5.34a.63.63,0,1,0,0,1.25H26.09l1.57,3.06,0,.08a1.26,1.26,0,0,1,0,1.39,1.41,1.41,0,0,1-1.21.65H2.6a1.31,1.31,0,0,1-1.13-.69,1.24,1.24,0,0,1,.07-1.32Z"/></g></g></svg>